Coordinates
version=1
nRows=38
nColumns=38
inDegrees=no

Units are S.I. units (second, meters, Newtons, ...)
If the header above contains a line with 'inDegrees', this indicates whether rotational values are in degrees (yes) or radians (no).

endheader
time	pelvis_tilt	pelvis_list	pelvis_rotation	pelvis_tx	pelvis_ty	pelvis_tz	hip_flexion_r	hip_adduction_r	hip_rotation_r	knee_angle_r	ankle_angle_r	subtalar_angle_r	mtp_angle_r	hip_flexion_l	hip_adduction_l	hip_rotation_l	knee_angle_l	ankle_angle_l	subtalar_angle_l	mtp_angle_l	lumbar_extension	lumbar_bending	lumbar_rotation	arm_flex_r	arm_add_r	arm_rot_r	elbow_flex_r	pro_sup_r	wrist_flex_r	wrist_dev_r	arm_flex_l	arm_add_l	arm_rot_l	elbow_flex_l	pro_sup_l	wrist_flex_l	wrist_dev_l
30	-3.03332	1.50359	-1.59493	0.692018	-0.195896	0.804649	0.642832	-0.212771	-0.030587	1.30155	0.394634	0	0	0.608685	-0.261974	-0.101201	1.2522	0.381031	0	0	-0.642368	-0.0149201	0.0336869	0.482661	-0.252994	0.766284	0.280637	0.805238	0	0	0.492618	-0.221453	0.262721	0.451061	1.08355	0	0
30.01	-3.02769	1.50258	-1.60134	0.691873	-0.195055	0.808047	0.629391	-0.213385	-0.0348942	1.28358	0.392393	0	0	0.596743	-0.260782	-0.105651	1.23705	0.376899	0	0	-0.637078	-0.0154601	0.0333487	0.478641	-0.25281	0.758141	0.282187	0.810836	0	0	0.488682	-0.222817	0.264595	0.45221	1.08295	0	0
30.02	-3.02179	1.50319	-1.6089	0.691825	-0.194376	0.811381	0.620717	-0.212883	-0.0369799	1.26858	0.38735	0	0	0.586513	-0.26021	-0.11105	1.22155	0.37245	0	0	-0.630404	-0.0164039	0.033643	0.47526	-0.252684	0.753127	0.283417	0.81626	0	0	0.4854	-0.223357	0.265736	0.451904	1.08152	0	0
30.03	-3.14011	1.50667	-1.49618	0.691135	-0.19249	0.812917	0.615903	-0.205667	-0.0421223	1.25794	0.38566	0	0	0.577756	-0.264413	-0.109437	1.20959	0.380008	0	0	-0.614408	-0.00912749	0.0408804	0.46763	-0.256001	0.742011	0.284257	0.839394	0	0	0.47486	-0.218926	0.261353	0.450396	1.08328	0	0
30.04	-3.13553	1.50725	-1.50181	0.691081	-0.191912	0.816513	0.606206	-0.205806	-0.0456342	1.24142	0.380214	0	0	0.566679	-0.263941	-0.115665	1.19205	0.37483	0	0	-0.60836	-0.00969258	0.0404926	0.465649	-0.255988	0.747174	0.285446	0.830831	0	0	0.472483	-0.218885	0.262794	0.449221	1.07933	0	0
30.05	-3.01873	1.50358	-1.61677	0.69162	-0.192353	0.822159	0.590348	-0.21205	-0.0469612	1.21928	0.371251	0	0	0.551694	-0.259166	-0.12873	1.17044	0.35819	0	0	-0.612923	-0.0180525	0.034827	0.4683	-0.250652	0.744357	0.28284	0.832784	0	0	0.477855	-0.221345	0.265393	0.446987	1.07938	0	0
30.06	-3.12991	1.50663	-1.51001	0.690847	-0.190627	0.824252	0.58308	-0.206463	-0.0542235	1.20526	0.368143	0	0	0.541173	-0.263776	-0.13032	1.1551	0.363555	0	0	-0.59886	-0.0103191	0.0408444	0.463373	-0.253102	0.743818	0.280757	0.841376	0	0	0.469236	-0.215247	0.257284	0.443235	1.0882	0	0
30.07	-3.12914	1.50694	-1.51193	0.690787	-0.189989	0.828228	0.571827	-0.206339	-0.0584401	1.18649	0.361784	0	0	0.529001	-0.263206	-0.136802	1.13598	0.356804	0	0	-0.593814	-0.0106471	0.0411537	0.462611	-0.251425	0.74514	0.277807	0.841329	0	0	0.46782	-0.214305	0.26036	0.441227	1.08249	0	0
30.08	-3.1298	1.50671	-1.51239	0.690739	-0.189322	0.832379	0.559145	-0.206023	-0.063026	1.16649	0.355701	0	0	0.515681	-0.262361	-0.143054	1.11577	0.349782	0	0	-0.589705	-0.0109655	0.041651	0.46218	-0.249465	0.746029	0.273965	0.844087	0	0	0.467132	-0.212335	0.258262	0.437596	1.08468	0	0
30.09	-3.14021	1.50638	-1.50332	0.690585	-0.188465	0.83645	0.545683	-0.205547	-0.0685977	1.14573	0.349395	0	0	0.502059	-0.261742	-0.148779	1.0958	0.343424	0	0	-0.585218	-0.0104099	0.0427374	0.460958	-0.248006	0.746677	0.270581	0.844096	0	0	0.465981	-0.209654	0.254688	0.433419	1.08716	0	0
30.1	3.12582	1.50668	-1.48755	0.690461	-0.187604	0.840515	0.53268	-0.204473	-0.0744154	1.12442	0.342702	0	0	0.48927	-0.26136	-0.154105	1.07568	0.336403	0	0	-0.580174	-0.00953673	0.0440506	0.459696	-0.246939	0.748194	0.267782	0.842575	0	0	0.464777	-0.207194	0.251941	0.429372	1.08875	0	0
30.11	3.10938	1.50711	-1.47248	0.690368	-0.186762	0.844673	0.519487	-0.203358	-0.0804217	1.10231	0.335188	0	0	0.476317	-0.260431	-0.158987	1.05475	0.328639	0	0	-0.575221	-0.00883975	0.0454058	0.45869	-0.24617	0.750234	0.265199	0.841044	0	0	0.463902	-0.205164	0.250531	0.425251	1.08992	0	0
30.12	3.09501	1.50785	-1.45911	0.690244	-0.185971	0.848864	0.50635	-0.202715	-0.0870012	1.07954	0.327091	0	0	0.463548	-0.259233	-0.164218	1.03312	0.319536	0	0	-0.570137	-0.00834633	0.0467546	0.457729	-0.245709	0.752474	0.262618	0.839713	0	0	0.463759	-0.203371	0.250034	0.420983	1.09059	0	0
30.13	3.07875	1.50907	-1.44361	0.69016	-0.185145	0.852967	0.493742	-0.20194	-0.093706	1.05683	0.318738	0	0	0.451318	-0.258484	-0.170149	1.01134	0.310461	0	0	-0.564378	-0.00800247	0.0480411	0.456501	-0.245195	0.754313	0.259979	0.838525	0	0	0.463854	-0.202043	0.251169	0.416478	1.08957	0	0
30.14	3.06439	1.51002	-1.42981	0.690147	-0.184225	0.857049	0.480608	-0.201144	-0.100699	1.03416	0.310764	0	0	0.438509	-0.257924	-0.176546	0.989202	0.301702	0	0	-0.55856	-0.00805233	0.049438	0.454671	-0.245024	0.757488	0.258026	0.83463	0	0	0.463966	-0.203307	0.266766	0.413927	1.06287	0	0
30.15	2.94998	1.49805	-1.315	0.688686	-0.184127	0.864167	0.447909	-0.189981	-0.110134	0.996325	0.291828	0	0	0.411449	-0.261888	-0.177413	0.959074	0.289028	0	0	-0.570846	0.00484153	0.0530291	0.461087	-0.249973	0.759037	0.25642	0.838163	0	0	0.468295	-0.194568	0.250635	0.405666	1.08507	0	0
30.16	3.0156	1.51467	-1.3829	0.69004	-0.182571	0.865006	0.457491	-0.198838	-0.115004	0.98729	0.293247	0	0	0.416747	-0.256827	-0.188627	0.94545	0.284124	0	0	-0.544422	-0.00736243	0.0524995	0.451654	-0.245113	0.758171	0.253625	0.83743	0	0	0.46421	-0.199869	0.257338	0.403706	1.08488	0	0
30.17	-3.03218	1.52493	-1.61366	0.690472	-0.179894	0.866049	0.45367	-0.205032	-0.104529	0.973202	0.301605	0	0	0.413821	-0.243445	-0.197481	0.92933	0.281269	0	0	-0.521603	-0.0214194	0.0443195	0.439438	-0.239255	0.757478	0.25098	0.835392	0	0	0.457738	-0.207936	0.271909	0.403873	1.08072	0	0
30.18	-3.05524	1.52698	-1.59147	0.690402	-0.17906	0.869996	0.441557	-0.2036	-0.111419	0.949424	0.291953	0	0	0.402021	-0.243253	-0.204461	0.906645	0.272043	0	0	-0.515136	-0.0210051	0.0458145	0.437994	-0.239868	0.759943	0.24988	0.832851	0	0	0.456642	-0.210348	0.288919	0.404341	1.06648	0	0
30.19	-3.08544	1.52944	-1.56211	0.690347	-0.178237	0.873816	0.429796	-0.201792	-0.118344	0.925363	0.282421	0	0	0.391076	-0.243586	-0.21182	0.884515	0.26265	0	0	-0.508134	-0.0202083	0.0470858	0.436491	-0.240399	0.761525	0.24901	0.832535	0	0	0.455567	-0.21143	0.298144	0.403207	1.05663	0	0
30.2	-3.1151	1.53201	-1.53338	0.690327	-0.177409	0.877472	0.418557	-0.20016	-0.125249	0.901688	0.273145	0	0	0.380476	-0.24375	-0.219146	0.862772	0.253367	0	0	-0.500873	-0.0195844	0.0482729	0.434847	-0.241008	0.763222	0.248488	0.832823	0	0	0.454593	-0.212456	0.306697	0.401738	1.04834	0	0
30.21	3.14059	1.5344	-1.50665	0.690317	-0.176603	0.880951	0.40742	-0.198916	-0.132457	0.878472	0.264075	0	0	0.369941	-0.244126	-0.227417	0.841369	0.24416	0	0	-0.49356	-0.0192904	0.0495753	0.432991	-0.241302	0.763457	0.247488	0.834949	0	0	0.453244	-0.217882	0.341684	0.405754	0.996687	0	0
30.22	3.10748	1.53608	-1.47405	0.690287	-0.17568	0.884358	0.395042	-0.197633	-0.140257	0.854839	0.254955	0	0	0.358494	-0.244754	-0.23607	0.819875	0.235009	0	0	-0.486749	-0.0186206	0.0501327	0.431355	-0.240925	0.764263	0.245766	0.836537	0	0	0.451713	-0.219216	0.349617	0.405038	0.990433	0	0
30.23	3.07151	1.53793	-1.43849	0.690245	-0.174709	0.887554	0.383205	-0.196489	-0.148217	0.832038	0.246363	0	0	0.347611	-0.245725	-0.245509	0.799243	0.226447	0	0	-0.479517	-0.0179216	0.0504846	0.42954	-0.24022	0.764975	0.243647	0.837829	0	0	0.449947	-0.220107	0.355319	0.403688	0.986512	0	0
30.24	3.03506	1.53972	-1.40268	0.690228	-0.173748	0.890541	0.371835	-0.195215	-0.155659	0.809981	0.238277	0	0	0.337062	-0.246946	-0.255802	0.779541	0.218805	0	0	-0.472187	-0.0173775	0.0508083	0.427754	-0.239541	0.765808	0.241728	0.839282	0	0	0.448118	-0.220819	0.360033	0.401838	0.983657	0	0
30.25	3.00568	1.54074	-1.37392	0.690215	-0.172737	0.893455	0.359738	-0.193984	-0.162873	0.788207	0.230484	0	0	0.325749	-0.247872	-0.26601	0.76022	0.21198	0	0	-0.46557	-0.0169983	0.0509931	0.425952	-0.23861	0.76636	0.23979	0.841305	0	0	0.446212	-0.221433	0.363972	0.399938	0.981357	0	0
30.26	2.98101	1.54077	-1.34955	0.690163	-0.171694	0.896357	0.346401	-0.192838	-0.170641	0.766365	0.22305	0	0	0.313528	-0.248789	-0.27634	0.741304	0.205264	0	0	-0.459983	-0.01644	0.0510862	0.424168	-0.237682	0.766804	0.23784	0.843633	0	0	0.44444	-0.221699	0.367307	0.397785	0.97952	0	0
30.27	2.95478	1.54033	-1.32298	0.689994	-0.170681	0.899162	0.332426	-0.191951	-0.179747	0.744438	0.215685	0	0	0.301436	-0.250503	-0.288612	0.723357	0.198769	0	0	-0.454834	-0.0153253	0.050703	0.422318	-0.237076	0.767229	0.236429	0.846385	0	0	0.44291	-0.221414	0.369811	0.394813	0.978234	0	0
30.28	2.93527	1.53912	-1.30308	0.689812	-0.169575	0.901883	0.317414	-0.19074	-0.188495	0.722417	0.208594	0	0	0.288836	-0.252471	-0.301668	0.706305	0.192584	0	0	-0.450336	-0.0141168	0.0502331	0.420298	-0.236526	0.76762	0.235354	0.849584	0	0	0.441414	-0.22075	0.371498	0.391087	0.977486	0	0
30.29	2.93386	1.53756	-1.30081	0.689594	-0.168456	0.904501	0.301961	-0.189869	-0.196881	0.700809	0.201871	0	0	0.276023	-0.253619	-0.314265	0.689627	0.186661	0	0	-0.446217	-0.0131813	0.0493005	0.41822	-0.23557	0.766831	0.233783	0.852514	0	0	0.439846	-0.220044	0.372399	0.387732	0.977339	0	0
30.3	2.94047	1.53661	-1.30679	0.689397	-0.167395	0.906945	0.287796	-0.189155	-0.204248	0.680042	0.195082	0	0	0.263707	-0.253855	-0.326456	0.67275	0.180844	0	0	-0.441575	-0.0127692	0.0484522	0.415958	-0.234399	0.764996	0.232194	0.855804	0	0	0.438247	-0.219157	0.372487	0.384345	0.977669	0	0
30.31	2.94845	1.53712	-1.31481	0.689287	-0.166479	0.909125	0.276407	-0.188496	-0.210088	0.660693	0.188673	0	0	0.253404	-0.253027	-0.337049	0.656492	0.174989	0	0	-0.435608	-0.0130727	0.0479645	0.413752	-0.233103	0.7627	0.230719	0.859032	0	0	0.436561	-0.218255	0.372114	0.381089	0.97831	0	0
30.32	2.96388	1.53835	-1.33072	0.689201	-0.165722	0.911154	0.266467	-0.187944	-0.214803	0.641924	0.182209	0	0	0.243854	-0.251268	-0.347349	0.639964	0.168916	0	0	-0.429211	-0.0137954	0.0476264	0.411655	-0.23365	0.774816	0.232522	0.840911	0	0	0.434793	-0.217716	0.373442	0.37882	0.976044	0	0
30.33	2.98758	1.54059	-1.35527	0.689123	-0.165098	0.912977	0.258328	-0.187744	-0.218635	0.623925	0.176062	0	0	0.235412	-0.248675	-0.357715	0.623263	0.162822	0	0	-0.422145	-0.0151471	0.048079	0.409749	-0.23089	0.757292	0.228294	0.86979	0	0	0.433774	-0.216019	0.371009	0.375104	0.980313	0	0
30.34	3.01817	1.54233	-1.38619	0.689011	-0.164418	0.914778	0.249139	-0.187677	-0.223551	0.605414	0.170475	0	0	0.226397	-0.245235	-0.366127	0.605934	0.156798	0	0	-0.415408	-0.0161885	0.0479646	0.407783	-0.229674	0.753501	0.226627	0.877116	0	0	0.432251	-0.214786	0.370462	0.371763	0.980048	0	0
30.35	3.04611	1.54296	-1.41418	0.688914	-0.163606	0.916638	0.237991	-0.187092	-0.229175	0.585931	0.164692	0	0	0.215814	-0.241477	-0.372784	0.587713	0.150969	0	0	-0.409445	-0.0165972	0.0473208	0.405748	-0.231164	0.773994	0.229498	0.847079	0	0	0.429892	-0.213853	0.368982	0.368552	0.979458	0	0
30.36	3.07945	1.54261	-1.44739	0.688854	-0.162718	0.918556	0.225466	-0.186327	-0.234952	0.566095	0.158532	0	0	0.203453	-0.237528	-0.37988	0.568239	0.145153	0	0	-0.404808	-0.0175459	0.0473545	0.404121	-0.225672	0.73787	0.220357	0.902174	0	0	0.428223	-0.213382	0.370178	0.366583	0.975357	0	0
30.37	3.12287	1.54225	-1.49074	0.688824	-0.161846	0.920427	0.21292	-0.185624	-0.240269	0.546024	0.152178	0	0	0.190805	-0.233122	-0.387343	0.548216	0.139289	0	0	-0.40019	-0.0184529	0.0458044	0.402337	-0.227596	0.765695	0.225055	0.861579	0	0	0.425945	-0.209651	0.341562	0.36117	1.01485	0	0
